<svg width="17" height="17" viewBox="0 0 17 17" fill="none" xmlns="http://www.w3.org/2000/svg">
<path d="M12.5301 7.96875H2.65625C2.51535 7.96875 2.38023 8.02472 2.2806 8.12435C2.18097 8.22398 2.125 8.3591 2.125 8.5C2.125 8.6409 2.18097 8.77602 2.2806 8.87565C2.38023 8.97528 2.51535 9.03125 2.65625 9.03125H12.5301L8.65512 12.9051C8.55537 13.0049 8.49933 13.1402 8.49933 13.2812C8.49933 13.4223 8.55537 13.5576 8.65512 13.6574C8.75488 13.7571 8.89018 13.8132 9.03125 13.8132C9.17232 13.8132 9.30762 13.7571 9.40738 13.6574L14.1886 8.87612C14.2381 8.82678 14.2774 8.76815 14.3041 8.70361C14.3309 8.63907 14.3447 8.56988 14.3447 8.5C14.3447 8.43012 14.3309 8.36093 14.3041 8.29639C14.2774 8.23185 14.2381 8.17322 14.1886 8.12387L9.40738 3.34262C9.30762 3.24287 9.17232 3.18683 9.03125 3.18683C8.89018 3.18683 8.75488 3.24287 8.65512 3.34262C8.55537 3.44238 8.49933 3.57768 8.49933 3.71875C8.49933 3.85982 8.55537 3.99512 8.65512 4.09487L12.5301 7.96875Z" fill="#710A85"/>
</svg>
