<svg width="1370" height="284" viewBox="0 0 1370 284" fill="none" xmlns="http://www.w3.org/2000/svg">
<g opacity="0.5" clip-path="url(#clip0_1_2041)">
<path d="M1159.76 162.511C1158.66 158.947 1154.92 156.978 1151.36 158.081L1148.75 158.89L1142.33 160.876L1146.3 173.706L1155.33 170.912C1158.89 169.809 1160.86 166.075 1159.76 162.511Z" stroke="black" stroke-width="3" stroke-miterlimit="10"/>
<path d="M1153.18 150.49C1152.07 146.926 1148.34 144.957 1144.77 146.06L1138.36 148.045L1142.33 160.876L1148.75 158.89C1152.31 157.787 1154.28 154.054 1153.18 150.49Z" stroke="black" stroke-width="3" stroke-miterlimit="10"/>
<path d="M1132.33 192.088L1183.65 176.204L1167.77 124.883L1116.45 140.767L1132.33 192.088ZM1142.33 160.876L1138.36 148.045L1144.77 146.06C1148.34 144.957 1152.07 146.926 1153.18 150.49C1154.28 154.054 1152.31 157.787 1148.75 158.89L1151.36 158.081C1154.92 156.978 1158.66 158.947 1159.76 162.511C1160.86 166.075 1158.89 169.809 1155.33 170.912L1146.3 173.706L1142.33 160.876Z" stroke="black" stroke-width="3" stroke-miterlimit="10"/>
<path d="M1220.89 142.158C1222.22 146.435 1219.84 150.946 1215.56 152.27C1211.28 153.594 1206.77 151.215 1205.45 146.938L1202.29 136.721C1200.96 132.445 1203.34 127.933 1207.62 126.609C1211.9 125.286 1216.41 127.665 1217.73 131.941M1177.99 121.721L1193.87 173.042L1245.19 157.158L1229.31 105.837L1177.99 121.721Z" stroke="black" stroke-width="3" stroke-miterlimit="10"/>
<path d="M1160.42 73.7856L1155.19 75.4034L1155.87 94.8496L1170.84 90.2168L1160.42 73.7856Z" stroke="black" stroke-width="3" stroke-miterlimit="10"/>
<path d="M1155.99 94.8128L1156.3 105.912L1155.87 94.8495L1170.84 90.2167M1155.99 94.8128L1155.75 94.8863M1155.99 94.8128L1155.31 75.3666L1160.42 73.7856L1170.84 90.2167M1170.84 90.2167L1171.08 90.1432M1170.84 90.2167L1176.85 99.551M1179.49 53.8222L1128.17 69.7061L1144.06 121.027L1195.38 105.143L1179.49 53.8222Z" stroke="black" stroke-width="3" stroke-miterlimit="10"/>
</g>
<g clip-path="url(#clip1_1_2041)">
<path d="M1267.9 117.239C1268.76 113.205 1269.63 109.172 1270.54 105.257C1276.05 82.0065 1281.56 58.7561 1287.1 35.6245C1287.46 34.2159 1287.86 32.9261 1288.26 31.6363C1289.44 31.9361 1290.58 32.1172 1291.76 32.417C1292.53 32.7084 1293.38 32.8442 1294.15 33.1355C1293.79 34.5441 1293.47 36.0715 1293.11 37.4801C1292.12 41.5504 1291.09 45.5018 1290.1 49.5721C1289.43 52.1149 1288.92 54.7398 1288.38 57.2458C1287.07 62.8435 1285.75 68.4411 1284.4 73.9199C1282.91 80.2219 1281.42 86.5238 1279.93 92.8258C1278.99 96.6216 1278.08 100.536 1277.26 104.295C1276.59 106.838 1276.08 109.463 1275.41 112.006C1275.09 113.533 1274.77 115.061 1274.49 116.707C1273.55 116.727 1272.52 116.902 1271.58 116.922C1270.36 116.896 1269.24 117.62 1267.9 117.239Z" fill="#45AAB8"/>
<path d="M1306.36 35.7493C1303.42 48.0788 1300.53 60.5272 1297.51 73.0122C1293.98 88.1222 1290.45 103.232 1286.92 118.342C1286.91 118.735 1286.74 119.046 1286.57 119.358C1284.95 118.93 1283.35 119.015 1281.79 119.219C1281.63 119.137 1281.63 119.137 1281.47 119.055C1281.06 119.046 1280.53 119.075 1280.12 119.066C1280.29 118.755 1280.38 118.599 1280.55 118.288C1281.05 116.057 1281.55 113.825 1282.08 111.712C1283.04 107.523 1284.15 103.416 1285.1 99.2268C1286.1 94.7634 1287.14 90.4188 1288.14 85.9554C1288.82 83.0194 1289.62 80.0466 1290.3 77.1106C1291.6 71.9062 1292.75 66.6197 1293.92 61.4519C1295.05 56.9518 1296.13 52.3328 1297.26 47.8326C1298.15 44.3111 1298.93 40.8264 1299.66 37.2229C1299.93 36.363 1300.03 35.4211 1300.13 34.4792C1301.11 34.5782 1302.13 34.796 1303.11 34.895C1304.12 35.1129 1305.3 35.4127 1306.36 35.7493Z" fill="#047B8E"/>
<path d="M1309.69 22.13C1309.64 22.4044 1309.64 22.4044 1309.56 22.56C1308.88 25.496 1308.04 28.3499 1307.36 31.2859C1306.34 31.0681 1305.16 30.7683 1304.14 30.5505C1303.13 30.3326 1302.23 30.0781 1301.18 29.7414C1301.26 29.5859 1301.51 29.5123 1301.47 29.3935C1302.24 26.302 1302.88 23.2472 1303.52 20.1924C1305.11 20.5007 1306.53 20.727 1308.12 21.0354C1308.73 21.2447 1309.17 21.7651 1309.69 22.13Z" fill="#055868"/>
<path d="M1289.29 27.2917C1289.34 27.0173 1289.27 26.7797 1289.44 26.4686C1290.12 23.5325 1290.88 20.441 1291.56 17.505C1292.13 17.5955 1292.7 17.686 1293.11 17.6945C1293.43 17.8586 1293.63 18.0594 1293.92 18.1047C1295.1 18.4045 1296.24 18.5856 1297.41 18.8854C1297 20.9616 1296.55 22.9189 1296.13 24.995C1295.86 26.2481 1295.79 27.3088 1295.52 28.5618C1294.5 28.344 1293.53 28.245 1292.51 28.0271C1291.33 27.7273 1290.31 27.5095 1289.29 27.2917Z" fill="#388691"/>
<path d="M1281.79 119.219C1283.35 119.015 1284.99 119.049 1286.57 119.358C1286.4 119.669 1286.27 120.099 1286.1 120.41C1283.37 125.388 1280.61 130.247 1277.72 135.143C1276.61 137.166 1275.21 139.143 1274.11 141.165C1273.94 141.083 1273.91 140.964 1273.74 140.882C1274.08 140.26 1274.35 139.4 1274.6 138.934C1275.96 136.838 1276.51 134.332 1277.42 132.108C1278.41 129.73 1279.28 127.388 1280.15 125.046C1280.93 123.252 1281.66 121.34 1282.32 119.584C1282.12 119.383 1281.95 119.301 1281.79 119.219Z" fill="#E9C293"/>
<path d="M1267.9 117.239C1269.24 117.62 1270.36 116.896 1271.67 116.766C1271.56 118.101 1271.48 119.555 1271.37 120.89C1271.16 123.167 1271.03 125.289 1270.81 127.566C1270.6 129.843 1270.55 132.202 1270.49 134.561C1270.45 136.526 1270.4 138.492 1270.4 140.577C1270.15 140.65 1269.99 140.568 1269.74 140.642C1269.53 139.143 1269.32 137.644 1269.23 136.108C1268.75 130.001 1268.44 123.976 1267.96 117.869C1268.05 117.714 1267.97 117.476 1267.9 117.239Z" fill="#FCE2C0"/>
<path d="M1269.74 140.642C1269.99 140.568 1270.15 140.65 1270.4 140.577C1270.56 140.659 1270.72 140.741 1270.88 140.823C1271.42 140.795 1272.07 140.73 1272.64 140.82C1273.05 140.829 1273.33 140.874 1273.74 140.882C1273.91 140.964 1273.94 141.083 1274.11 141.165C1274.06 141.44 1274.01 141.714 1273.93 141.87C1273.16 143.27 1272.35 144.551 1271.59 145.951C1271.42 146.262 1270.92 146.409 1270.55 146.52C1270.43 146.556 1270.03 146.155 1269.95 145.917C1269.95 144.226 1269.91 142.415 1269.74 140.642Z" fill="#454444"/>
<path d="M1304.14 30.5504C1305.16 30.7683 1306.34 31.0681 1307.36 31.2859C1307.04 32.8133 1306.68 34.2219 1306.36 35.7493C1305.3 35.4127 1304.16 35.2317 1303.11 34.8951C1303.43 33.3677 1303.79 31.9591 1304.14 30.5504Z" fill="#BBBDBE"/>
<path d="M1289.29 27.2917C1290.31 27.5095 1291.49 27.8093 1292.51 28.0271C1292.31 29.5178 1291.95 30.9264 1291.76 32.417C1290.58 32.1172 1289.44 31.9361 1288.26 31.6363C1288.58 30.1089 1288.94 28.7003 1289.29 27.2917Z" fill="#E4E6E6"/>
<path d="M1297.25 18.8035C1296.07 18.5036 1294.93 18.3226 1293.75 18.0227C1293.47 17.9774 1293.27 17.7766 1292.95 17.6125C1293.6 17.5475 1294.26 17.4825 1294.95 17.5362C1299.93 17.8757 1304.56 19.2307 1309.01 21.29C1309.46 21.4173 1309.94 21.6634 1309.44 22.2036C1308.92 21.8387 1308.52 21.4371 1308.03 21.191C1306.57 20.8458 1305.02 20.6563 1303.43 20.348C1301.48 19.7568 1299.45 19.3211 1297.25 18.8035Z" fill="#104D58"/>
<path d="M1309.56 22.5608C1309.52 22.4416 1309.65 22.4036 1309.61 22.2844C1309.61 22.2844 1309.52 22.4416 1309.56 22.5608Z" fill="#104D58"/>
<path d="M1300.09 34.3604C1299.99 35.3023 1299.85 36.1254 1299.62 37.1041C1298.85 40.5888 1297.99 44.2291 1297.22 47.7138C1296.09 52.214 1295.01 56.833 1293.89 61.3332C1292.58 66.5376 1291.44 71.8241 1290.26 76.9918C1289.58 79.9279 1288.78 82.9006 1288.1 85.8366C1287.1 90.3 1286.1 94.7634 1285.07 99.108C1284.11 103.297 1283.04 107.523 1282.05 111.593C1281.55 113.825 1281.05 116.057 1280.51 118.169C1280.46 118.444 1280.29 118.755 1280.08 118.947C1279.92 118.865 1279.67 118.939 1279.51 118.857C1278.56 117.578 1276.93 117.544 1275.55 117.044C1275.51 116.925 1275.51 116.925 1275.38 116.962C1275.06 116.797 1274.74 116.633 1274.54 116.433C1274.86 114.905 1275.14 113.259 1275.46 111.732C1275.97 109.107 1276.64 106.564 1277.31 104.021C1278.25 100.225 1279.16 96.3105 1279.98 92.5514C1281.47 86.2495 1282.96 79.9475 1284.45 73.6456C1285.76 68.0479 1287.07 62.4503 1288.42 56.9715C1289.09 54.4286 1289.6 51.8037 1290.15 49.2977C1291.14 45.2274 1292.17 41.276 1293.16 37.2058C1293.52 35.7972 1293.84 34.2698 1294.2 32.8612C1295.22 33.079 1296.36 33.26 1297.37 33.4778C1298.31 33.8512 1299.2 34.1058 1300.09 34.3604Z" fill="#1A93A5"/>
<path d="M1274.58 116.551C1274.9 116.715 1275.22 116.88 1275.42 117.08C1275.24 117.785 1275.15 118.333 1274.97 119.038C1274.81 120.647 1274.78 122.22 1274.46 123.747C1274.08 125.942 1273.66 128.018 1273.25 130.094C1273.11 130.917 1272.97 131.741 1272.83 132.564C1272.65 133.268 1272.47 133.972 1272.29 134.677C1272.23 135.344 1272.34 136.094 1272.16 136.798C1271.8 138.207 1271.28 139.533 1270.92 140.942C1270.76 140.86 1270.6 140.778 1270.44 140.696C1270.48 138.73 1270.49 136.645 1270.53 134.679C1270.58 132.32 1270.8 130.043 1270.85 127.684C1270.94 125.444 1271.2 123.286 1271.41 121.009C1271.52 119.674 1271.6 118.22 1271.71 116.885C1272.61 116.747 1273.55 116.727 1274.58 116.551Z" fill="#FDD5A5"/>
<path d="M1297.29 33.6335C1296.27 33.4156 1295.13 33.2346 1294.11 33.0168C1293.34 32.7254 1292.49 32.5896 1291.72 32.2983C1291.91 30.8076 1292.27 29.399 1292.47 27.9084C1293.49 28.1262 1294.47 28.2252 1295.48 28.4431C1296.38 28.6977 1297.39 28.9155 1298.29 29.1701C1297.97 30.6975 1297.61 32.1061 1297.29 33.6335Z" fill="#DBDDDE"/>
<path d="M1279.55 118.976C1279.71 119.058 1279.96 118.984 1280.12 119.066C1280.53 119.075 1281.06 119.046 1281.47 119.055C1281.63 119.137 1281.63 119.137 1281.79 119.219C1281.95 119.301 1282.28 119.465 1282.48 119.666C1281.7 121.459 1280.93 123.252 1280.31 125.128C1279.44 127.47 1278.61 129.93 1277.58 132.19C1276.55 134.45 1276.12 136.92 1274.77 139.016C1274.39 139.519 1274.25 140.342 1273.91 140.964C1273.5 140.956 1273.21 140.911 1272.8 140.902C1273.6 138.323 1274.43 135.862 1275.22 133.282C1275.88 131.132 1276.51 128.864 1277.01 126.632C1277.75 124.327 1278.34 121.94 1279.09 119.635C1279.13 119.36 1279.34 119.168 1279.55 118.976Z" fill="#F1C793"/>
<path d="M1297.29 33.6335C1297.65 32.2249 1297.97 30.6975 1298.33 29.2889C1299.31 29.3879 1300.2 29.6425 1301.18 29.7415C1302.19 29.9593 1303.09 30.2139 1304.14 30.5505C1303.79 31.9591 1303.46 33.4865 1303.11 34.8951C1302.13 34.7961 1301.11 34.5783 1300.13 34.4792C1299.2 34.1059 1298.31 33.8513 1297.29 33.6335Z" fill="#CFD1D2"/>
<path d="M1281.8 119.218C1281.63 119.136 1281.63 119.136 1281.47 119.055C1281.51 119.174 1281.63 119.136 1281.8 119.218Z" fill="#E9C293"/>
<path d="M1301.18 29.7414C1300.2 29.6424 1299.31 29.3878 1298.33 29.2888C1297.43 29.0342 1296.42 28.8164 1295.52 28.5618C1295.67 27.3455 1295.82 26.1293 1296.13 24.995C1296.55 22.9189 1297 20.9616 1297.41 18.8854C1299.49 19.4399 1301.65 19.8387 1303.72 20.3932C1303.08 23.448 1302.31 26.5395 1301.67 29.5943C1301.55 29.6311 1301.3 29.7046 1301.18 29.7414Z" fill="#14707F"/>
<path d="M1279.55 118.976C1279.34 119.168 1279.13 119.36 1279.05 119.516C1278.3 121.821 1277.55 124.126 1276.97 126.514C1276.31 128.663 1275.81 130.895 1275.18 133.163C1274.39 135.743 1273.56 138.204 1272.76 140.783C1272.23 140.812 1271.58 140.877 1271.01 140.786C1271.37 139.378 1271.89 138.051 1272.24 136.642C1272.42 135.938 1272.32 135.189 1272.37 134.521C1272.43 133.854 1272.73 133.112 1272.91 132.408C1273.05 131.585 1273.19 130.762 1273.34 129.939C1273.75 127.863 1274.25 125.631 1274.54 123.592C1274.86 122.064 1274.9 120.492 1275.06 118.882C1275.11 118.215 1275.33 117.629 1275.51 116.925L1275.67 117.007C1277 117.782 1278.6 117.697 1279.55 118.976Z" fill="#FCD19C"/>
<path d="M1275.59 117.162L1275.42 117.08C1275.55 117.042 1275.59 117.162 1275.59 117.162Z" fill="#FDD5A5"/>
</g>
<g clip-path="url(#clip2_1_2041)">
<path d="M117.931 170.515C110.523 165.801 101.639 163.555 92.9398 163.943C71.0199 164.854 51.8693 181.437 50.4434 205.257C49.9719 213.961 51.9637 222.995 56.4099 230.644C60.9125 238.12 67.754 243.982 75.6725 247.72C83.5331 251.344 92.4707 252.845 101.108 251.485C109.745 250.125 117.853 246.02 124.177 240.092C130.501 234.164 135.27 226.298 137.289 217.815C139.419 208.989 138.457 199.72 134.923 191.323C131.617 182.811 125.627 175.513 117.931 170.515Z" fill="#FF986D"/>
<path d="M143.536 173.763C141.408 171.828 138.492 172.587 136.15 173.629C133.123 175.018 130.326 176.577 127.531 178.423C127.416 178.481 127.302 178.539 127.302 178.539C127.36 178.653 127.476 178.881 127.534 178.996C127.591 179.11 127.763 179.166 127.821 179.28C127.879 179.395 128.109 179.565 128.167 179.679C129.137 179.045 130.164 178.525 131.134 177.89C133.246 176.677 135.644 175.463 137.988 174.707C138.845 174.417 139.988 174.125 140.848 174.406C141.708 174.688 142.284 175.258 142.688 176.057C143.614 177.884 143.223 179.947 142.201 181.612C141.066 183.622 139.53 185.404 137.993 187.186C136.4 189.141 134.749 190.981 133.098 192.821C129.797 196.501 126.379 199.953 122.79 203.348C115.612 210.139 107.8 216.246 99.699 221.782C91.4261 227.262 82.6921 232.115 73.7255 236.224C69.1561 238.25 64.6432 240.105 59.9004 241.789C57.8434 242.543 55.9006 243.24 53.6701 243.652C52.1263 244.003 50.1806 244.127 48.6889 243.448C48.115 243.165 47.6553 242.824 47.4241 242.367C46.9587 240.881 46.9515 239.45 47.5731 237.844C48.0791 236.009 48.9869 234.402 49.8369 232.68C50.2908 231.877 50.6869 230.959 51.1972 229.983C51.5933 229.065 52.2192 228.318 52.7873 227.456C53.2991 226.767 53.6966 226.135 54.2083 225.446C54.0349 225.103 53.8036 224.646 53.6301 224.304C53.4018 224.419 53.2312 224.649 53.0028 224.765C51.8622 225.629 50.9515 226.664 49.9266 227.757C48.9017 228.85 47.8768 229.943 47.1396 231.32C46.3445 232.583 45.7793 234.017 45.1562 235.337C44.0243 237.919 43.1251 241.243 45.4263 243.522C46.0595 244.205 47.0366 245.002 48.0687 245.34C49.1008 245.679 50.1893 245.845 51.2763 245.725C53.6802 245.655 56.0234 244.9 58.2524 244.201C61.1666 243.156 64.0808 242.111 66.995 241.066C72.5936 238.806 78.1907 236.259 83.558 233.541C94.4631 227.877 104.734 221.242 114.312 213.523C123.776 205.862 132.491 197.289 140.287 188.033C142.051 185.849 144.215 183.606 145.175 180.968C145.792 178.503 145.433 175.528 143.536 173.763Z" fill="black"/>
<path d="M85.8332 173.71C85.7176 173.481 85.4877 173.311 85.2579 173.14C85.0859 173.084 84.9139 173.028 84.684 172.857C84.34 172.744 83.8818 172.689 83.5392 172.863C83.3108 172.978 83.1966 173.036 82.9104 173.038C82.5678 173.211 82.283 173.499 81.9982 173.786C81.884 173.844 81.8277 174.016 81.7135 174.074C81.5429 174.304 81.4301 174.648 81.3737 174.82C81.261 175.164 81.2624 175.45 81.3781 175.679C81.3795 175.965 81.5529 176.307 81.7828 176.478C81.8984 176.706 82.1282 176.877 82.3581 177.048C82.5301 177.104 82.7021 177.16 82.9319 177.331C83.276 177.444 83.7342 177.499 84.0768 177.325C84.3052 177.209 84.4194 177.152 84.7056 177.15C85.0482 176.977 85.333 176.689 85.6177 176.401C85.7319 176.344 85.7883 176.172 85.9025 176.114C86.0731 175.884 86.1859 175.54 86.2422 175.368C86.355 175.024 86.3536 174.738 86.2379 174.509C86.0645 174.167 85.9488 173.938 85.8332 173.71Z" fill="#E6EAEC"/>
<path d="M81.9848 193.879C79.4725 195.151 81.4961 199.148 84.0085 197.876C86.635 196.546 84.6114 192.549 81.9848 193.879Z" fill="#E6EAEC"/>
<path d="M102.175 179.066C100.005 180.164 101.682 183.476 103.851 182.378C106.079 181.393 104.344 177.967 102.175 179.066Z" fill="#E6EAEC"/>
<path d="M110.499 195.224C110.096 194.711 109.464 194.313 108.834 194.202C108.146 193.977 107.574 193.979 106.887 194.04C106.258 194.215 105.573 194.562 105.06 194.965L104.946 195.023C104.432 195.426 104.035 196.058 103.809 196.746C103.584 197.434 103.472 198.064 103.705 198.807C103.938 199.55 104.227 200.121 104.688 200.749C105.091 201.262 105.723 201.659 106.411 201.885C107.099 202.111 107.729 202.222 108.472 201.989C109.215 201.756 109.786 201.467 110.414 201.006C110.927 200.603 111.325 199.971 111.55 199.283C111.776 198.595 111.887 197.965 111.654 197.222L111.596 197.108C111.249 196.423 110.903 195.737 110.499 195.224Z" fill="#E6EAEC"/>
<path d="M92.0928 211.86C91.8052 211.575 91.4033 211.348 91.0593 211.236C90.8873 211.179 90.601 211.181 90.429 211.124C89.9708 211.069 89.5704 211.129 89.1136 211.36C88.771 211.533 88.5426 211.649 88.4299 211.993C88.2593 212.223 88.0887 212.453 87.9759 212.797C87.8632 213.141 87.8646 213.427 87.8661 213.713C87.8675 213.999 87.9268 214.4 88.0424 214.628C88.158 214.857 88.2158 214.971 88.4457 215.141C88.7333 215.426 89.1352 215.653 89.4792 215.766C89.6512 215.822 89.9374 215.821 90.1095 215.877C90.5677 215.932 90.9681 215.873 91.4249 215.642C91.7675 215.468 91.9959 215.353 92.1086 215.009C92.2792 214.779 92.4498 214.549 92.5625 214.205C92.6753 213.861 92.6739 213.575 92.6724 213.288C92.671 213.002 92.5554 212.774 92.3819 212.431C92.3241 212.317 92.2084 212.089 92.0928 211.86Z" fill="#E6EAEC"/>
<path d="M125.509 209.002C119.685 211.95 124.253 220.972 130.077 218.023C135.901 215.075 131.333 206.053 125.509 209.002Z" fill="#E6EAEC"/>
<path d="M112.188 223.78C111.901 223.496 111.671 223.325 111.327 223.212C111.155 223.156 110.983 223.1 110.811 223.043C110.41 223.102 110.124 223.104 109.782 223.277C109.553 223.393 109.325 223.509 109.154 223.738C108.984 223.968 108.813 224.198 108.757 224.37C108.586 224.6 108.587 224.886 108.703 225.115C108.705 225.401 108.706 225.687 108.936 225.858C108.994 225.972 109.109 226.2 109.281 226.257C109.569 226.541 109.799 226.712 110.143 226.825C110.315 226.881 110.487 226.937 110.659 226.994C111.059 226.935 111.345 226.933 111.688 226.76C111.916 226.644 112.145 226.528 112.315 226.299C112.486 226.069 112.657 225.839 112.713 225.667C112.884 225.437 112.882 225.151 112.766 224.922C112.765 224.636 112.764 224.35 112.534 224.179C112.418 223.951 112.36 223.837 112.188 223.78Z" fill="#E6EAEC"/>
<path d="M123.852 186.742C123.506 186.343 123.104 186.116 122.588 185.947C122.416 185.891 122.13 185.892 121.958 185.836C121.5 185.781 120.985 185.898 120.528 186.129C120.186 186.303 119.901 186.59 119.731 186.82C119.446 187.108 119.275 187.338 119.22 187.796C119.107 188.14 118.995 188.484 119.054 188.884C119.113 189.285 119.115 189.571 119.288 189.914C119.404 190.142 119.634 190.313 119.749 190.541C120.095 190.94 120.497 191.167 121.013 191.336C121.185 191.392 121.471 191.391 121.643 191.447C122.101 191.502 122.616 191.385 123.072 191.154C123.415 190.98 123.7 190.693 123.87 190.463C124.155 190.175 124.326 189.945 124.381 189.487C124.493 189.143 124.606 188.799 124.547 188.399C124.488 187.998 124.314 187.656 124.141 187.313C124.025 187.085 123.967 186.971 123.852 186.742Z" fill="#E6EAEC"/>
<path d="M70.2689 197.659C68.5559 198.526 69.8857 201.153 71.5987 200.285C73.3116 199.418 71.9818 196.792 70.2689 197.659Z" fill="#E6EAEC"/>
<path d="M91.3839 184.673C91.1541 184.502 90.9242 184.332 90.7522 184.275C90.5802 184.219 90.466 184.277 90.4082 184.163C90.122 184.164 89.8358 184.165 89.6074 184.281C89.379 184.397 89.2648 184.454 89.0942 184.684C88.8658 184.8 88.8094 184.972 88.8109 185.258C88.7545 185.43 88.6981 185.602 88.6995 185.888C88.6432 186.06 88.7588 186.289 88.8744 186.517C88.9323 186.631 88.9901 186.746 89.0479 186.86C89.2777 187.03 89.5076 187.201 89.6796 187.257L90.0236 187.37C90.3098 187.369 90.596 187.367 90.8244 187.252C91.0528 187.136 91.167 187.078 91.3376 186.848C91.566 186.733 91.6224 186.561 91.6209 186.274C91.6773 186.102 91.7337 185.93 91.7322 185.644C91.7886 185.472 91.673 185.244 91.5574 185.015C91.4995 184.901 91.4417 184.787 91.3839 184.673Z" fill="#E6EAEC"/>
<path d="M103.291 207.625C101.236 208.666 102.797 211.749 104.853 210.708C106.966 209.782 105.347 206.584 103.291 207.625Z" fill="#E6EAEC"/>
<path d="M96.9175 237.825C96.2844 237.141 95.4229 236.573 94.5628 236.291C94.1046 236.236 93.5885 236.067 93.1303 236.012C92.0996 235.96 91.1846 236.136 90.271 236.599C89.5858 236.946 88.9585 237.407 88.5609 238.038C88.1056 238.556 87.7081 239.188 87.4825 239.876C87.257 240.564 87.2035 241.308 87.2642 241.995C87.2107 242.739 87.4434 243.482 87.7903 244.167C88.1358 244.566 88.3671 245.023 88.7125 245.422C89.3457 246.106 90.2072 246.674 91.0673 246.956C91.5255 247.011 92.0415 247.18 92.4998 247.235C93.5304 247.287 94.4454 247.111 95.359 246.648C96.0442 246.301 96.6716 245.84 97.0691 245.208C97.5245 244.691 97.922 244.059 98.1475 243.371C98.373 242.683 98.4265 241.939 98.3658 241.252C98.4193 240.508 98.1866 239.765 97.8397 239.079C97.4942 238.68 97.1488 238.282 96.9175 237.825Z" fill="#E6EAEC"/>
<path d="M38.9166 212.528L34.46 214.211L33.3381 218.796L30.4573 215.089L25.6509 215.514L28.2067 211.494L26.4679 207.21L31.053 208.332L34.7016 205.337L34.9544 210.087L38.9166 212.528Z" fill="black"/>
<path d="M100.062 145.989L94.1529 143.386L88.8463 146.79L89.3871 140.49L84.4436 136.394L90.733 134.931L93.0504 129.023L96.2839 134.56L102.64 134.928L98.4853 139.758L100.062 145.989Z" fill="black"/>
<path d="M160.538 208.196L156.709 209.417L155.583 213.144L153.22 209.893L149.271 210.027L151.659 206.81L150.323 203.038L154.107 204.279L157.358 201.915L157.321 205.808L160.538 208.196Z" fill="black"/>
</g>
<defs>
<clipPath id="clip0_1_2041">
<rect width="124.359" height="124.359" fill="white" transform="translate(1093.51 77.1783) rotate(-17.1973)"/>
</clipPath>
<clipPath id="clip1_1_2041">
<rect width="128.832" height="124.794" fill="white" transform="matrix(0.95841 -0.285397 0.306226 0.951959 1207.48 38.7682)"/>
</clipPath>
<clipPath id="clip2_1_2041">
<rect width="128" height="128" fill="white" transform="translate(0 168.818) rotate(-26.853)"/>
</clipPath>
</defs>
</svg>
