<svg width="1440" height="148" viewBox="0 0 1440 148" fill="none" xmlns="http://www.w3.org/2000/svg">
<path d="M0 12.8254H1440C1440 20.0151 1433.37 25.9722 1426.23 26.8439C1420.25 27.5748 1412.43 29.1924 1403 32.557C1393.02 36.118 1377.1 55.5028 1382.19 115.469C1382.38 117.71 1382.25 120.017 1381.7 122.199C1374.67 150.132 1366.71 147.013 1364.5 147C1357.87 146.961 1346 146.507 1340.5 116.91C1336.1 93.2316 1384.5 34.0369 1342 36.0101C1299.5 37.9832 1331.5 101.124 1312.5 100.631C1293.5 100.138 1292.39 70.047 1291.5 64.1276C1282 0.986488 1271.24 34.8012 1258 34.0369C1243.55 33.2027 1246 14.7986 1218.5 19.7315C1191 24.6644 1182 36.5033 1147.5 31.0772C1113 25.651 1122.46 67.2396 1099 67.5806C1085.48 67.7772 1080.14 41.4384 1067.54 37.2436C1065.28 36.4908 1062.86 37.11 1060.61 37.893C1042.54 44.1768 1022.81 48.1024 996 28.6107C975 18.7449 981.602 22.5339 959 22.6912C897 48.8356 853.5 55.2483 807 32.8847C807 32.8847 781.296 22.661 764.5 22.6912C749.041 22.719 714.322 36.4881 697.5 36.5033C679.278 36.5199 672.5 39.9564 656.5 33.0503C643.901 28.6111 635.756 18.5788 625.142 21.2891C622.64 21.9281 620.631 23.7162 618.815 25.5516C601.826 42.7142 590.73 36.1415 589 35.0235C574.5 25.651 575.35 23.4201 567 24.1711C544.831 26.1649 554.458 45.8758 555.5 58.2081C556.542 70.5403 546.5 79.4195 536 77.9397C525.5 76.4598 546 47.849 538 33.0503C530 18.2516 501.774 21.227 489.5 21.2114C476.622 21.1949 451.268 37.527 439.5 37.4899C421.369 37.4328 381.128 22.8019 366 22.6912C346.013 22.5451 312.842 35.2743 299 35.0235C276.181 34.61 269.912 30.3409 267.5 29.5973C245.403 22.7848 235.174 16.8086 214.96 30.9178C211.328 33.4533 206.937 36.0094 205.861 40.3066C203.837 48.3841 203.986 64.4293 203.999 79.2781C204 80.3581 203.927 81.4404 203.719 82.5004C201.097 95.9136 192.904 102.32 191 102.111C187.024 101.675 177.192 104.32 171.163 94.0525C169.422 91.088 169.306 87.5114 169.715 84.098C172.714 59.0858 166.649 51.0904 157 51.7953C144.949 52.6758 153 70.5403 134.5 70.5403C116 70.5403 114.516 26.4809 102 27.6241C69.7847 30.5669 84 94.2182 86.5 108.524C89 122.829 73.5 123.322 66.5 122.336C59.5 121.349 52.5 115.923 51 105.071C49.5 94.2182 61.2661 57.982 54 37.4899C48.782 22.7739 28.0977 35.2297 23.5 35.0235C19.0512 34.824 14.3571 33.4142 10.3437 31.8057C3.65467 29.1248 0 22.2676 0 15.0614V12.8254Z" fill="#458BDD"/>
<path d="M82.7526 110.891C82.3796 112.484 75.3686 119.333 67.8351 117.616C60.3016 115.899 56.0727 106.487 56.4457 104.894C56.8187 103.302 58.4665 110.753 66 112.47C73.5335 114.187 83.1256 109.298 82.7526 110.891Z" fill="white" fill-opacity="0.16"/>
<path d="M547.537 72.1387C547.303 73.1383 542.903 77.4375 538.174 76.3596C533.446 75.2818 535.379 66.2614 535.613 65.2618C535.847 64.2622 535.272 71.9289 540 73.0067C544.728 74.0846 547.771 71.139 547.537 72.1387Z" fill="white" fill-opacity="0.16"/>
<path d="M142.559 63.5201C142.367 64.3411 137.036 67.481 130.634 66.0214C124.231 64.5619 125.728 57.1324 125.92 56.3114C126.112 55.4903 126.257 61.928 132.659 63.3875C139.062 64.847 142.751 62.699 142.559 63.5201Z" fill="white" fill-opacity="0.16"/>
<path d="M1374.82 129.237C1374.08 130.699 1362.76 140.822 1355.85 137.41C1348.93 133.998 1348.07 118.595 1348.81 117.133C1349.56 115.671 1348.93 128.027 1355.85 131.439C1362.76 134.85 1375.56 127.775 1374.82 129.237Z" fill="white" fill-opacity="0.16"/>
<path d="M1317.8 88.8656C1317.64 89.8134 1312.78 97.3907 1307.86 96.5988C1302.93 95.8069 1299.28 87.2452 1299.44 86.2974C1299.6 85.3497 1301.72 92.433 1306.64 93.2249C1311.57 94.0168 1317.96 87.9179 1317.8 88.8656Z" fill="white" fill-opacity="0.16"/>
<path d="M614.542 25.8685C613.801 27.3306 600.307 36.9552 593.391 33.5437C586.476 30.1321 583.259 25.6333 584 24.1712C584.741 22.7092 586.476 26.6792 593.391 30.0907C600.307 33.5023 615.283 24.4065 614.542 25.8685Z" fill="white" fill-opacity="0.16"/>
<path d="M700.267 30.5301C699.471 31.9635 673.494 38.4867 664.384 33.5604C655.275 28.6341 649.448 24.4339 650.245 23.0005C651.041 21.5671 659.031 25.9498 668.14 30.8761C677.25 35.8024 701.063 29.0967 700.267 30.5301Z" fill="white" fill-opacity="0.16"/>
<path d="M314.264 24.5977C313.782 26.4333 297.749 31.4419 290.264 29.5305C285.39 28.2859 277.435 27.4063 272.129 25.4464C267.721 23.818 269.152 20.8089 273.728 21.8953C279.291 23.2158 286.857 25.4454 291.264 26.5708C298.749 28.4822 314.679 23.0152 314.264 24.5977Z" fill="white" fill-opacity="0.16"/>
<path d="M7.04922 25.7008C7.53078 27.5364 17.8285 34.0096 22.2018 32.8928C25.2105 32.1246 30.3597 32.0953 33.3507 30.4727C35.8841 29.0984 34.3395 26.4679 31.5225 27.1003C28.2615 27.8323 23.8659 29.2528 21.2889 29.9109C16.9156 31.0276 6.63407 24.1183 7.04922 25.7008Z" fill="white" fill-opacity="0.16"/>
<path d="M1046.21 36.1348C1045.37 37.8408 1028.65 39.6351 1021.7 36.3063C1017.16 34.1369 1009.53 31.7261 1004.72 28.7699C1000.73 26.3175 1002.73 23.6507 1007 25.6023C1012.19 27.978 1019.17 31.6379 1023.27 33.599C1030.22 36.9277 1046.93 34.664 1046.21 36.1348Z" fill="white" fill-opacity="0.16"/>
<path d="M1187.61 23.368C1187.43 24.8474 1172.45 30.0634 1164.77 29.1628C1160.33 28.6414 1153.53 28.5416 1148.19 27.7436C1142.5 26.895 1143.27 24.0329 1148.98 24.682C1154.44 25.3027 1161.2 26.2809 1165.28 26.7594C1172.96 27.6601 1187.76 22.0926 1187.61 23.368Z" fill="white" fill-opacity="0.16"/>
<path d="M1105.2 62.6388C1104.18 63.5856 1091.43 60.6232 1089.79 57.3151C1088.9 55.5305 1087.34 53.7557 1086.55 52.0593C1085.28 49.3375 1088.49 48.613 1089.97 51.2301C1091.01 53.0793 1092.09 55.3162 1092.87 56.8927C1094.52 60.2008 1108.11 59.9367 1105.2 62.6388Z" fill="white" fill-opacity="0.16"/>
<path d="M1260.86 31.9049C1260.11 32.6014 1250.73 30.422 1249.52 27.9882C1249.05 27.0371 1248.32 26.0897 1247.73 25.1653C1246.11 22.6302 1248.83 21.9072 1250.23 24.5647C1250.8 25.6584 1251.36 26.8053 1251.79 27.6775C1253 30.1113 1263 29.917 1260.86 31.9049Z" fill="white" fill-opacity="0.16"/>
<path d="M881.562 38.7989C883.226 42.8101 837.438 43.3886 823.497 36.8587C815.356 33.0457 806.733 28.9589 800.795 25.4077C795.197 22.059 796.737 19.8277 802.718 22.456C810.493 25.8733 821.771 31.0381 831.293 34.8146C847.486 41.2369 879.897 34.7877 881.562 38.7989Z" fill="white" fill-opacity="0.16"/>
<path d="M455.264 27.5576C454.782 29.3932 438.749 34.4018 431.264 32.4905C426.39 31.2458 418.435 30.3662 413.129 28.4064C408.721 26.778 410.152 23.7689 414.728 24.8552C420.291 26.1758 427.857 28.4054 432.264 29.5307C439.749 31.4421 455.679 25.9752 455.264 27.5576Z" fill="white" fill-opacity="0.16"/>
<path d="M191.244 90.9807C197.973 87.9332 198.727 90.325 192.418 94.1619C191.788 94.5454 191.145 94.8982 190.5 95.2049C186.111 97.2918 181.717 96.792 178.5 95.2049C176.029 93.9858 172.727 84.9835 173 82.3795C173.593 76.7175 177.239 78.3064 178.245 83.9004C178.815 87.0691 180.247 90.394 183 91.7519C185.466 92.9684 188.439 92.2511 191.244 90.9807Z" fill="white" fill-opacity="0.16"/>
</svg>
