<svg width="22" height="22" viewBox="0 0 22 22" fill="none" xmlns="http://www.w3.org/2000/svg">
<path d="M6.36174 4.58333C6.36149 5.06957 6.1681 5.53578 5.82412 5.87943C5.48013 6.22307 5.01372 6.416 4.52749 6.41575C4.04126 6.41551 3.57504 6.22212 3.23139 5.87813C2.88775 5.53414 2.69483 5.06773 2.69507 4.5815C2.69531 4.09527 2.8887 3.62905 3.23269 3.28541C3.57668 2.94176 4.04309 2.74884 4.52932 2.74908C5.01555 2.74933 5.48177 2.94272 5.82541 3.2867C6.16906 3.63069 6.36198 4.0971 6.36174 4.58333ZM6.41674 7.77333H2.75007V19.25H6.41674V7.77333ZM12.2101 7.77333H8.56174V19.25H12.1734V13.2275C12.1734 9.8725 16.5459 9.56084 16.5459 13.2275V19.25H20.1667V11.9808C20.1667 6.325 13.6951 6.53584 12.1734 9.31334L12.2101 7.77333Z" fill="#E4E4E4"/>
</svg>
