<svg width="22" height="22" viewBox="0 0 22 22" fill="none" xmlns="http://www.w3.org/2000/svg">
<path d="M20.5883 5.50002C19.8825 5.82085 19.1216 6.03169 18.3333 6.13252C19.14 5.64669 19.7633 4.87669 20.0566 3.95085C19.2958 4.40919 18.4525 4.73002 17.5633 4.91335C16.8391 4.12502 15.8216 3.66669 14.6666 3.66669C12.5125 3.66669 10.7525 5.42669 10.7525 7.59919C10.7525 7.91085 10.7891 8.21335 10.8533 8.49752C7.58996 8.33252 4.68412 6.76502 2.74995 4.39085C2.41079 4.96835 2.21829 5.64669 2.21829 6.36169C2.21829 7.72752 2.90579 8.93752 3.96912 9.62502C3.31829 9.62502 2.71329 9.44169 2.18162 9.16669V9.19419C2.18162 11.1009 3.53829 12.6959 5.33495 13.0534C4.75812 13.2112 4.15254 13.2332 3.56579 13.1175C3.81476 13.899 4.30236 14.5827 4.96005 15.0727C5.61774 15.5627 6.41245 15.8342 7.23245 15.8492C5.84245 16.9496 4.11945 17.5444 2.34662 17.5359C2.03495 17.5359 1.72329 17.5175 1.41162 17.4809C3.15329 18.5992 5.22495 19.25 7.44329 19.25C14.6666 19.25 18.6358 13.255 18.6358 8.05752C18.6358 7.88335 18.6358 7.71835 18.6266 7.54419C19.3966 6.99419 20.0566 6.29752 20.5883 5.50002Z" fill="#E4E4E4"/>
</svg>
